{
    "streams": [
        {
            "index": 0,
            "codec_name": "h264",
            "codec_long_name": "H.264 / AVC / MPEG-4 AVC / MPEG-4 part 10",
            "profile": "High",
            "codec_type": "video",
            "codec_tag_string": "avc1",
            "codec_tag": "0x31637661",
            "width": 720,
            "height": 358,
            "coded_width": 720,
            "coded_height": 358,
            "closed_captions": 0,
            "has_b_frames": 2,
            "sample_aspect_ratio": "32:27",
            "display_aspect_ratio": "1280:537",
            "pix_fmt": "yuv420p",
            "level": 31,
            "color_range": "tv",
            "color_space": "smpte170m",
            "color_transfer": "bt709",
            "color_primaries": "smpte170m",
            "chroma_location": "left",
            "refs": 1,
            "is_avc": "true",
            "nal_length_size": "4",
            "r_frame_rate": "120/1",
            "avg_frame_rate": "1704753000/71073479",
            "time_base": "1/90000",
            "start_pts": 0,
            "start_time": "0.000000",
            "duration_ts": 1421469580,
            "duration": "15794.106444",
            "bit_rate": "1147365",
            "bits_per_raw_sample": "8",
            "nb_frames": "378834",
            "disposition": {
                "default": 1,
                "dub": 0,
                "original": 0,
                "comment": 0,
                "lyrics": 0,
                "karaoke": 0,
                "forced": 0,
                "hearing_impaired": 0,
                "visual_impaired": 0,
                "clean_effects": 0,
                "attached_pic": 0,
                "timed_thumbnails": 0
            },
            "tags": {
                "creation_time": "2021-09-13T22:42:42.000000Z",
                "language": "und",
                "handler_name": "VideoHandler",
                "vendor_id": "[0][0][0][0]"
            }
        },
        {
            "index": 1,
            "codec_name": "aac",
            "codec_long_name": "AAC (Advanced Audio Coding)",
            "profile": "LC",
            "codec_type": "audio",
            "codec_tag_string": "mp4a",
            "codec_tag": "0x6134706d",
            "sample_fmt": "fltp",
            "sample_rate": "48000",
            "channels": 7,
            "bits_per_sample": 0,
            "r_frame_rate": "0/0",
            "avg_frame_rate": "0/0",
            "time_base": "1/48000",
            "start_pts": 0,
            "start_time": "0.000000",
            "duration_ts": 758115312,
            "duration": "15794.069000",
            "bit_rate": "224197",
            "nb_frames": "740348",
            "disposition": {
                "default": 1,
                "dub": 0,
                "original": 0,
                "comment": 0,
                "lyrics": 0,
                "karaoke": 0,
                "forced": 0,
                "hearing_impaired": 0,
                "visual_impaired": 0,
                "clean_effects": 0,
                "attached_pic": 0,
                "timed_thumbnails": 0
            },
            "tags": {
                "creation_time": "2021-09-13T22:42:42.000000Z",
                "language": "eng",
                "handler_name": "Surround 6.1",
                "vendor_id": "[0][0][0][0]"
            }
        },
        {
            "index": 2,
            "codec_name": "aac",
            "codec_long_name": "AAC (Advanced Audio Coding)",
            "profile": "LC",
            "codec_type": "audio",
            "codec_tag_string": "mp4a",
            "codec_tag": "0x6134706d",
            "sample_fmt": "fltp",
            "sample_rate": "48000",
            "channels": 2,
            "channel_layout": "stereo",
            "bits_per_sample": 0,
            "r_frame_rate": "0/0",
            "avg_frame_rate": "0/0",
            "time_base": "1/48000",
            "start_pts": 0,
            "start_time": "0.000000",
            "duration_ts": 758114304,
            "duration": "15794.048000",
            "bit_rate": "160519",
            "nb_frames": "740347",
            "disposition": {
                "default": 0,
                "dub": 0,
                "original": 0,
                "comment": 0,
                "lyrics": 0,
                "karaoke": 0,
                "forced": 0,
                "hearing_impaired": 0,
                "visual_impaired": 0,
                "clean_effects": 0,
                "attached_pic": 0,
                "timed_thumbnails": 0
            },
            "tags": {
                "creation_time": "2021-09-13T22:42:42.000000Z",
                "language": "eng",
                "handler_name": "Commentary",
                "vendor_id": "[0][0][0][0]"
            }
        },
        {
            "index": 3,
            "codec_name": "dvd_subtitle",
            "codec_long_name": "DVD subtitles",
            "codec_type": "subtitle",
            "codec_tag_string": "mp4s",
            "codec_tag": "0x7334706d",
            "width": 720,
            "height": 480,
            "r_frame_rate": "0/0",
            "avg_frame_rate": "0/0",
            "time_base": "1/90000",
            "start_pts": 0,
            "start_time": "0.000000",
            "duration_ts": 1300301588,
            "duration": "14447.795422",
            "bit_rate": "2653",
            "nb_frames": "3545",
            "disposition": {
                "default": 0,
                "dub": 0,
                "original": 0,
                "comment": 0,
                "lyrics": 0,
                "karaoke": 0,
                "forced": 0,
                "hearing_impaired": 0,
                "visual_impaired": 0,
                "clean_effects": 0,
                "attached_pic": 0,
                "timed_thumbnails": 0
            },
            "tags": {
                "creation_time": "2021-09-13T22:42:42.000000Z",
                "language": "spa",
                "handler_name": "SubtitleHandler"
            }
        },
        {
            "index": 4,
            "codec_name": "mov_text",
            "codec_long_name": "MOV text",
            "codec_type": "subtitle",
            "codec_tag_string": "tx3g",
            "codec_tag": "0x67337874",
            "width": 853,
            "height": 51,
            "r_frame_rate": "0/0",
            "avg_frame_rate": "0/0",
            "time_base": "1/90000",
            "start_pts": 0,
            "start_time": "0.000000",
            "duration_ts": 1401339330,
            "duration": "15570.437000",
            "bit_rate": "88",
            "nb_frames": "5079",
            "disposition": {
                "default": 1,
                "dub": 0,
                "original": 0,
                "comment": 0,
                "lyrics": 0,
                "karaoke": 0,
                "forced": 0,
                "hearing_impaired": 1,
                "visual_impaired": 0,
                "clean_effects": 0,
                "attached_pic": 0,
                "timed_thumbnails": 0
            },
            "tags": {
                "creation_time": "2021-09-13T22:42:42.000000Z",
                "language": "eng",
                "handler_name": "SubtitleHandler"
            }
        },
        {
            "index": 5,
            "codec_name": "mov_text",
            "codec_long_name": "MOV text",
            "codec_type": "subtitle",
            "codec_tag_string": "tx3g",
            "codec_tag": "0x67337874",
            "width": 853,
            "height": 51,
            "r_frame_rate": "0/0",
            "avg_frame_rate": "0/0",
            "time_base": "1/90000",
            "start_pts": 0,
            "start_time": "0.000000",
            "duration_ts": 1370580300,
            "duration": "15228.670000",
            "bit_rate": "18",
            "nb_frames": "1563",
            "disposition": {
                "default": 0,
                "dub": 0,
                "original": 0,
                "comment": 0,
                "lyrics": 0,
                "karaoke": 0,
                "forced": 0,
                "hearing_impaired": 0,
                "visual_impaired": 0,
                "clean_effects": 0,
                "attached_pic": 0,
                "timed_thumbnails": 0
            },
            "tags": {
                "creation_time": "2021-09-13T22:42:42.000000Z",
                "language": "eng",
                "handler_name": "Commentary"
            }
        }
    ]
}
